<svg xmlns="http://www.w3.org/2000/svg" xmlns:xlink="http://www.w3.org/1999/xlink" aria-hidden="true" role="img" class="iconify iconify--logos" width="35.93" height="32" preserveAspectRatio="xMidYMid meet" viewBox="0 0 256 228"><path fill="#00D8FF" d="M210.483 73.824a171.49 171.49 0 0 0-8.24-2.597c.465-1.9.893-3.777 1.273-5.621c6.238-30.281 2.16-54.676-11.769-68.253c-13.355-13.04-35.36-17.294-61.187-11.136a171.23 171.23 0 0 0-5.496 1.448a155.866 155.866 0 0 0-5.653-1.448C92.414-3.897 70.409.357 57.054 13.396c-13.93 13.577-18.007 37.973-11.77 68.253c.38 1.845.808 3.722 1.273 5.622a171.49 171.49 0 0 0-8.24 2.596C11.317 97.5.306 115.262 0 134.338c.287 18.24 10.56 35.176 27.342 44.627a171.313 171.313 0 0 0 7.464 3.741a155.525 155.525 0 0 0-.759 6.173c-5.653 27.436-2.351 49.47 9.11 61.64c11.924 12.64 33.312 16.707 58.07 10.382a134.104 134.104 0 0 0 4.582-1.16a147.27 147.27 0 0 0 5.877 1.16c24.759 6.325 46.147 2.258 58.07-10.382c11.462-12.17 14.764-34.204 9.11-61.64a155.525 155.525 0 0 0-.758-6.173a171.313 171.313 0 0 0 7.464-3.74c16.782-9.452 27.055-26.388 27.342-44.628c-.306-19.076-11.317-36.838-27.517-36.514Zm-6.185 97.954a147.28 147.28 0 0 1-6.876 3.44c-1.33-2.623-2.733-5.382-4.201-8.257a155.866 155.866 0 0 0 5.653-1.448a134.104 134.104 0 0 0-4.582-1.16c1.563-3.08 3.06-6.226 4.483-9.427a147.27 147.27 0 0 1 5.877 1.16c1.468 2.875 2.87 5.634 4.201 8.257a147.28 147.28 0 0 1-6.876 3.44Zm9.11-12.17a155.866 155.866 0 0 1-5.653 1.448c-1.424-3.2-2.92-6.347-4.483-9.427a134.104 134.104 0 0 1 4.582-1.16a155.866 155.866 0 0 1 5.653 1.448a134.104 134.104 0 0 1-4.582 1.16a155.866 155.866 0 0 1-5.653 1.448a134.104 134.104 0 0 1 4.582-1.16Zm-170.816 0a134.104 134.104 0 0 1 4.582 1.16a155.866 155.866 0 0 1-5.653-1.448a134.104 134.104 0 0 1 4.582-1.16a155.866 155.866 0 0 1-5.653 1.448a134.104 134.104 0 0 1 4.582-1.16Zm9.11 12.17a147.28 147.28 0 0 1-6.876-3.44c1.33-2.623 2.733-5.382 4.201-8.257a147.27 147.27 0 0 1 5.877-1.16c1.424 3.2 2.92 6.347 4.483 9.427a134.104 134.104 0 0 1-4.582 1.16a155.866 155.866 0 0 1-5.653 1.448c-1.468 2.875-2.87 5.634-4.201 8.257a147.28 147.28 0 0 1-6.876 3.44Zm8.24 5.622c-1.33 2.623-2.733 5.382-4.201 8.257c-24.759 6.325-46.147 2.258-58.07-10.382c-11.462-12.17-14.764-34.204-9.11-61.64a155.525 155.525 0 0 1 .759-6.173a171.313 171.313 0 0 1-7.464-3.741C10.56 169.514.287 152.578 0 134.338c.306-19.076 11.317-36.838 27.517-36.514a171.49 171.49 0 0 1 8.24-2.597c-.465-1.9-.893-3.777-1.273-5.621c-6.238-30.281-2.16-54.676 11.769-68.253c13.355-13.04 35.36-17.294 61.187-11.136a171.23 171.23 0 0 1 5.496-1.448a155.866 155.866 0 0 1 5.653 1.448c25.827-6.158 47.832-1.904 61.187 11.136c13.93 13.577 18.007 37.973 11.77 68.253c-.38 1.844-.808 3.722-1.273 5.621a171.49 171.49 0 0 1 8.24 2.597c16.2-.324 27.211 17.438 27.517 36.514c-.287 18.24-10.56 35.176-27.342 44.627a171.313 171.313 0 0 1-7.464 3.741a155.525 155.525 0 0 1 .759 6.173c5.653 27.436 2.351 49.47-9.11 61.64c-11.924 12.64-33.312 16.707-58.07 10.382a147.27 147.27 0 0 1-5.877-1.16a134.104 134.104 0 0 1-4.582 1.16a155.866 155.866 0 0 1-5.653-1.448a134.104 134.104 0 0 1-4.582-1.16Z"></path><ellipse fill="#00D8FF" cx="128" cy="134.449" rx="30.293" ry="29.591"></ellipse></svg>